<?xml version="1.0" encoding="UTF-8"?>
<svg width="30px" height="30px" viewBox="0 0 30 30" version="1.1" xmlns="http://www.w3.org/2000/svg" xmlns:xlink="http://www.w3.org/1999/xlink">
    <!-- Generator: Sketch 52.1 (67048) - http://www.bohemiancoding.com/sketch -->
    <title>Rectangle 1 + Imported Layers</title>
    <desc>Created with Sketch.</desc>
    <g id="GreenBe-marketing-site" stroke="none" stroke-width="1" fill="none" fill-rule="evenodd">
        <g id="Utility" transform="translate(-555.000000, -775.000000)">
            <g id="Section-1---apps" transform="translate(58.000000, 421.000000)">
                <g id="Rectangle-1-+-Imported-Layers" transform="translate(497.000000, 354.000000)">
                    <path d="M7.147633,0.714285714 C3.59322451,0.714285714 0.714285714,3.59216937 0.714285714,7.147633 L0.714285714,22.852367 C0.714285714,26.4067755 3.59216937,29.2857143 7.147633,29.2857143 L22.852367,29.2857143 C26.4067755,29.2857143 29.2857143,26.4078306 29.2857143,22.852367 L29.2857143,7.147633 C29.2857143,3.59322451 26.4078306,0.714285714 22.852367,0.714285714 L7.147633,0.714285714 Z" id="Rectangle-1" stroke="#666666" stroke-width="1.42857143"></path>
                    <path d="M18.4132114,10.3492857 C20.3588571,10.3492857 21.6030171,12.2318 21.6030171,12.2318 C21.6030171,12.2318 19.7050971,13.2617143 19.7050971,15.4984429 C19.7050971,18.1531857 22.0893257,18.9254143 22.0893257,18.9254143 C22.0893257,18.9254143 20.2074514,23.3905857 18.0943543,23.3905857 C16.9061486,23.3905857 16.8267429,22.7070143 15.24768,22.7070143 C13.8763886,22.7070143 13.4139429,23.3905857 12.3693257,23.3905857 C10.3755429,23.3905857 7.8,19.0381 7.8,15.4984429 C7.8,11.8216571 10.4076343,10.3492857 12.04224,10.3492857 C13.4777143,10.3492857 14.07552,11.1940143 15.2316343,11.1940143 C16.2046629,11.1940143 16.9703314,10.3492857 18.4132114,10.3492857 L18.4132114,10.3492857 Z M18.07872,6.6 C18.3654857,8.40214286 16.73088,10.631 14.7774171,10.5585 C14.49024,8.26542857 16.59552,6.72097143 18.07872,6.6 L18.07872,6.6 Z" id="Imported-Layers" fill="#666666"></path>
                </g>
            </g>
        </g>
    </g>
</svg>