<?xml version="1.0" encoding="UTF-8"?>
<svg width="30px" height="30px" viewBox="0 0 30 30" version="1.1" xmlns="http://www.w3.org/2000/svg" xmlns:xlink="http://www.w3.org/1999/xlink">
    <!-- Generator: Sketch 52.1 (67048) - http://www.bohemiancoding.com/sketch -->
    <title>Rectangle 1 + google play</title>
    <desc>Created with Sketch.</desc>
    <g id="GreenBe-marketing-site" stroke="none" stroke-width="1" fill="none" fill-rule="evenodd">
        <g id="Utility" transform="translate(-592.000000, -775.000000)">
            <g id="Section-1---apps" transform="translate(58.000000, 421.000000)">
                <g id="Rectangle-1-+-google-play" transform="translate(534.000000, 354.000000)">
                    <path d="M7.147633,0.714285714 C3.59322451,0.714285714 0.714285714,3.59216937 0.714285714,7.147633 L0.714285714,22.852367 C0.714285714,26.4067755 3.59216937,29.2857143 7.147633,29.2857143 L22.852367,29.2857143 C26.4067755,29.2857143 29.2857143,26.4078306 29.2857143,22.852367 L29.2857143,7.147633 C29.2857143,3.59322451 26.4078306,0.714285714 22.852367,0.714285714 L7.147633,0.714285714 Z" id="Rectangle-1" stroke="#666666" stroke-width="1.42857143"></path>
                    <path d="M9.51378681,21.7353846 C9.28157857,21.6719246 9.13043478,21.4380192 9.13043478,21.0760614 L9.13043478,9.12836444 C9.13043478,8.7931363 9.25841045,8.56704934 9.4612766,8.48484848 L9.4612766,8.48484848 L15.2481847,15.1431302 L9.51378681,21.7353846 L9.51378681,21.7353846 Z M10.3103963,21.4817733 L17.2760074,17.4762958 L15.5794338,15.5242577 L10.3103963,21.4817733 L10.3103963,21.4817733 Z M17.3239732,12.7568072 L10.4554354,8.80623234 L15.5894773,14.7507809 L17.3239732,12.7568072 L17.3239732,12.7568072 Z M17.7899979,13.0248505 L20.4807128,14.5724682 C20.9901675,14.8654911 20.9948265,15.3378408 20.4807128,15.6334746 L17.7219255,17.2198768 L15.9224944,15.1363711 L17.7899979,13.0248505 L17.7899979,13.0248505 Z" id="google-play" fill="#666666"></path>
                </g>
            </g>
        </g>
    </g>
</svg>