<?xml version="1.0" encoding="UTF-8"?>
<svg width="37px" height="26px" viewBox="0 0 37 26" version="1.1" xmlns="http://www.w3.org/2000/svg" xmlns:xlink="http://www.w3.org/1999/xlink">
    <!-- Generator: Sketch 52.2 (67145) - http://www.bohemiancoding.com/sketch -->
    <title>User icon</title>
    <desc>Created with Sketch.</desc>
    <g id="GreenBe-marketing-site" stroke="none" stroke-width="1" fill="none" fill-rule="evenodd">
        <g id="Customer-page-2" transform="translate(-494.000000, -287.000000)" fill="#333333" fill-rule="nonzero">
            <g id="Header">
                <g id="User-icon" transform="translate(494.000000, 287.000000)">
                    <g id="User-2" transform="translate(15.000000, 4.000000)">
                        <path d="M7,13 L15,13 C18.8659932,13 22,16.1340068 22,20 L22,22 L0,22 L0,20 C-4.73447626e-16,16.1340068 3.13400675,13 7,13 Z" id="Rectangle-11"></path>
                        <circle id="Oval-2" cx="11.5" cy="5.5" r="5.5"></circle>
                    </g>
                    <g id="User-1">
                        <path d="M7,13 L15,13 C18.8659932,13 22,16.1340068 22,20 L22,22 L0,22 L0,20 C-4.73447626e-16,16.1340068 3.13400675,13 7,13 Z" id="Rectangle-11"></path>
                        <circle id="Oval-2" cx="11.5" cy="5.5" r="5.5"></circle>
                    </g>
                </g>
            </g>
        </g>
    </g>
</svg>