<?xml version="1.0" encoding="UTF-8"?>
<svg width="109px" height="68px" viewBox="0 0 109 68" version="1.1" xmlns="http://www.w3.org/2000/svg" xmlns:xlink="http://www.w3.org/1999/xlink">
    <!-- Generator: Sketch 52.2 (67145) - http://www.bohemiancoding.com/sketch -->
    <title>Jemena white logo</title>
    <desc>Created with Sketch.</desc>
    <defs>
        <polygon id="path-1" points="0 -9.57746479e-05 108.999809 -9.57746479e-05 108.999809 26.8168056 0 26.8168056"></polygon>
        <polygon id="path-3" points="0.422996491 0.191549296 27.9187246 0.191549296 27.9187246 15.8026254 0.422996491 15.8026254"></polygon>
    </defs>
    <g id="GreenBe-marketing-site" stroke="none" stroke-width="1" fill="none" fill-rule="evenodd">
        <g id="Landing-page" transform="translate(-562.000000, -3317.000000)">
            <g id="Jemena" transform="translate(0.000000, 3217.000000)">
                <g id="Jemena-white-logo" transform="translate(562.000000, 100.000000)">
                    <g id="Group-13">
                        <path d="M94.7527439,19.5569915 C94.7527439,19.5560338 94.7537,19.5550761 94.7537,19.5550761 C94.7575246,19.558907 94.7584807,19.5569915 94.7393579,19.5435831 C90.4204719,26.8693859 82.4739895,31.8161465 73.3352,31.8161465 L71.9966035,31.8161465 C75.5333667,37.0837521 81.558007,40.6274141 88.4412614,40.6274141 C93.1043579,40.6274141 97.3926474,38.9887099 100.782165,36.2677521 C100.873954,35.6998085 100.871086,35.1625127 100.871086,34.5936113 C100.871086,28.7513577 98.4807351,23.4837521 94.7527439,19.5569915" id="Fill-1" fill="#FFFFFF"></path>
                        <path d="M69.2647193,15.435138 C68.7990789,17.1131099 68.5552632,18.8600394 68.5552632,20.6874197 C68.5552632,21.3578423 68.5552632,22.0282648 68.6508772,22.6986873 C70.6587719,23.3691099 72.8578947,23.6564338 75.0570175,23.6564338 C81.4277807,23.6564338 87.1455,20.9230254 91.1163509,16.5662366 C87.6752018,14.2695606 83.5647544,12.9296732 79.1684211,12.9296732 C75.6412193,12.9296732 72.2230175,13.8155887 69.2647193,15.435138" id="Fill-3" fill="#FFFFFF"></path>
                        <g id="Group-7" transform="translate(0.000000, 40.991549)">
                            <mask id="mask-2" fill="white">
                                <use xlink:href="#path-1"></use>
                            </mask>
                            <g id="Clip-6"></g>
                            <path d="M8.31822982,23.2731437 C8.7963,22.2196225 9.08314211,21.0703268 9.27437018,19.921031 C9.36998421,18.6759606 9.46559825,17.5266648 9.46559825,16.5689183 L9.46559825,2.58581972 C9.46559825,2.01117183 9.36998421,1.62807324 9.17875614,1.24497465 C8.98752807,0.957650704 8.7963,0.670326761 8.50945789,0.478777465 C8.22261579,0.287228169 7.84015965,0.191453521 7.55331754,0.0956788732 C7.1708614,-9.57746479e-05 6.78840526,-9.57746479e-05 6.50156316,-9.57746479e-05 L6.02349298,-9.57746479e-05 C5.64103684,0.0956788732 5.44980877,0.0956788732 5.2585807,0.0956788732 L4.9717386,0.0956788732 L4.9717386,18.6759606 C4.9717386,19.633707 4.87612456,20.4956789 4.58928246,21.0703268 C4.30244035,21.7407493 3.91998421,22.2196225 3.44191404,22.6984958 C2.96384386,23.0815944 2.39015965,23.3689183 1.7208614,23.5604676 L-0.00019122807,23.8477915 L-0.00019122807,24.3266648 C-0.00019122807,24.6139887 -0.00019122807,24.9013127 0.095422807,25.092862 C0.191036842,25.7632845 0.382264912,26.2421577 0.669107018,26.433707 C0.955949123,26.721031 1.52963333,26.8168056 2.29454561,26.8168056 C3.91998421,26.8168056 5.2585807,26.433707 6.11910702,25.7632845 C7.07524737,25.1886366 7.84015965,24.2308901 8.31822982,23.2731437 Z M108.139282,18.005538 L108.139282,10.7266648 C108.139282,9.57736901 108.043668,8.61962254 107.756826,7.7576507 C107.565598,6.99145352 107.087528,6.32103099 106.609458,5.7463831 C106.035774,5.17173521 105.366475,4.78863662 104.506905,4.59708732 C103.550765,4.30976338 102.498054,4.21398873 101.160414,4.21398873 C100.204274,4.21398873 99.2481333,4.30976338 98.3866509,4.50131268 C97.5261246,4.69286197 96.7612123,4.88441127 96.091914,5.17173521 C95.4235719,5.45905915 94.9455018,5.65060845 94.5620895,6.03370704 C94.2752474,6.22525634 94.1796333,6.51258028 94.1796333,6.70412958 C94.1796333,6.79990423 94.1796333,7.08722817 94.4674316,7.66187606 C94.6577035,8.04497465 94.8489316,8.33229859 95.0401596,8.71539718 C95.7094579,8.33229859 96.4743702,7.9492 97.2392825,7.66187606 C98.1954228,7.27877746 99.2481333,7.08722817 100.394546,7.08722817 C101.733142,7.08722817 102.594625,7.27877746 103.262967,7.85342535 C103.932265,8.33229859 104.219107,9.19427042 104.219107,10.3435662 L104.219107,11.492862 L102.116554,11.492862 C101.255072,11.5886366 100.204274,11.6844113 99.1515632,11.8759606 C98.0998088,12.0675099 97.1436684,12.3548338 96.1875281,12.833707 C95.3270018,13.3125803 94.5620895,13.8872282 93.9893614,14.6534254 C93.4147211,15.4196225 93.1278789,16.377369 93.1278789,17.5266648 C93.1278789,18.4844113 93.319107,19.3463831 93.6059491,20.0168056 C93.8927912,20.6872282 94.3708614,21.2618761 94.8489316,21.6449746 C95.3270018,22.0280732 95.9016421,22.3153972 96.5699842,22.5069465 C97.2392825,22.6984958 97.9085807,22.7942704 98.4822649,22.7942704 C99.7262035,22.7942704 100.777002,22.6027211 101.638484,22.2196225 C102.498054,21.8365239 103.167353,21.3576507 103.741037,20.7830028 L104.410335,20.1125803 L104.601563,20.9745521 C104.697177,21.5492 104.984975,21.9322986 105.366475,22.2196225 C105.748932,22.5069465 106.322616,22.6984958 107.183142,22.6984958 C107.565598,22.6984958 107.948054,22.6984958 108.331467,22.6027211 C108.521739,22.6027211 108.809537,22.5069465 108.999809,22.4111718 C108.426125,21.1661014 108.139282,19.8252563 108.139282,18.005538 Z M104.123493,16.2815944 C103.741037,17.0477915 103.262967,17.5266648 103.167353,17.6224394 C102.976125,17.8139887 102.594625,18.1970873 102.306826,18.3886366 C102.019984,18.5801859 101.638484,18.7717352 101.255072,18.8675099 C100.872616,18.9632845 100.394546,19.0590592 99.9164754,19.0590592 C99.0559491,19.0590592 98.4822649,18.8675099 98.1954228,18.4844113 C97.8139228,18.1013127 97.6217386,17.5266648 97.6217386,16.8562423 C97.6217386,16.2815944 97.7173526,15.8984958 98.0041947,15.5153972 C98.291993,15.1322986 98.673493,14.8449746 99.0559491,14.6534254 C99.5340193,14.3661014 100.012089,14.2703268 100.682344,14.1745521 C101.350686,14.0787775 101.92437,13.9830028 102.594625,13.9830028 L103.072695,13.9830028 L104.123493,13.8872282 L104.123493,16.2815944 Z M83.6620895,7.47032676 C84.4279579,7.47032676 85.000686,7.56610141 85.4787561,7.85342535 C85.9568263,8.1407493 86.2436684,8.42807324 86.5305105,8.90694648 C86.7217386,9.29004507 86.8183088,9.76891831 86.9129667,10.3435662 C86.9129667,10.8224394 87.0085807,11.3970873 87.0085807,11.9717352 L87.0085807,22.1238479 L91.3112123,22.1238479 L91.3112123,11.5886366 C91.3112123,10.9182141 91.3112123,10.2477915 91.2155982,9.57736901 C91.2155982,8.90694648 91.1209404,8.23652394 90.9287561,7.7576507 C90.7375281,6.70412958 90.1648,5.84215775 89.3989316,5.17173521 C88.6340193,4.50131268 87.3910368,4.21398873 85.6699842,4.21398873 C84.2357737,4.21398873 83.0884053,4.40553803 82.2278789,4.88441127 C81.3673526,5.36328451 80.7936684,5.84215775 80.3155982,6.41680563 L79.741914,7.27877746 L79.550686,6.22525634 C79.4550719,5.65060845 79.169186,5.26750986 78.6911158,4.98018592 C78.1164754,4.69286197 77.5427912,4.59708732 76.7788351,4.59708732 L76.1085807,4.59708732 C75.9173526,4.59708732 75.7261246,4.59708732 75.6305105,4.69286197 L75.5348965,4.69286197 L75.5348965,22.0280732 L79.8375281,22.0280732 L79.8375281,10.0562423 C79.8375281,9.29004507 80.2199842,8.61962254 81.0814667,8.1407493 C81.6541947,7.66187606 82.6103351,7.47032676 83.6620895,7.47032676 Z M27.0585807,20.1125803 C27.0585807,19.921031 26.9629667,19.5379324 26.5805105,18.8675099 C26.3892825,18.4844113 26.1980544,18.1013127 25.9112123,17.8139887 C25.8155982,17.9097634 25.6243702,18.005538 25.5287561,18.1970873 C25.241914,18.4844113 24.8594579,18.6759606 24.4770018,18.9632845 C24.0945456,19.1548338 23.6164754,19.3463831 23.0427912,19.5379324 C22.5647211,19.7294817 21.8954228,19.7294817 21.2261246,19.7294817 C19.4094579,19.7294817 18.0708614,19.1548338 17.2103351,18.1970873 C16.3498088,17.2393408 15.8717386,15.8984958 15.7761246,14.4618761 L15.7761246,13.9830028 L27.1541947,13.9830028 L27.1541947,11.9717352 C27.1541947,10.9182141 27.0585807,9.96046761 26.7717386,9.00272113 C26.4848965,8.1407493 26.1024404,7.27877746 25.5287561,6.60835493 C24.9550719,5.93793239 24.1901596,5.36328451 23.2340193,4.88441127 C22.2778789,4.50131268 21.1305105,4.21398873 19.791914,4.21398873 C18.7401596,4.21398873 17.6884053,4.40553803 16.7322649,4.69286197 C15.7761246,5.07596056 14.8199842,5.5548338 14.0550719,6.32103099 C13.2901596,7.08722817 12.6208614,7.9492 12.1427912,9.09849577 C11.6647211,10.2477915 11.473493,11.5886366 11.473493,13.121031 C11.473493,15.0365239 11.7603351,16.5689183 12.2384053,17.8139887 C12.8120895,19.0590592 13.4813877,20.0168056 14.341914,20.7830028 C15.2024404,21.5492 16.1585807,22.0280732 17.3059491,22.3153972 C18.4533175,22.6027211 19.600686,22.7942704 20.7480544,22.7942704 C21.9910368,22.7942704 23.1384053,22.6984958 24.0945456,22.4111718 C25.050686,22.1238479 25.7199842,21.8365239 26.1980544,21.4534254 C26.7717386,20.8787775 27.0585807,20.4956789 27.0585807,20.1125803 Z M16.8278789,8.33229859 C17.5927912,7.56610141 18.5489316,7.27877746 19.6963,7.27877746 C21.1305105,7.27877746 22.0866509,7.66187606 22.6603351,8.42807324 C23.2340193,9.19427042 23.5208614,10.1520169 23.5208614,11.3970873 L15.7761246,11.3970873 C15.7761246,10.0562423 16.0629667,9.09849577 16.8278789,8.33229859 Z M73.0489316,20.1125803 C73.0489316,19.921031 72.9542737,19.5379324 72.5708614,18.8675099 C72.3796333,18.4844113 72.1884053,18.1013127 71.9015632,17.8139887 C71.8059491,17.9097634 71.6147211,18.005538 71.5200632,18.1970873 C71.2322649,18.4844113 70.8498088,18.6759606 70.4673526,18.9632845 C70.0858526,19.1548338 69.6077825,19.3463831 69.0331421,19.5379324 C68.5550719,19.7294817 67.8857737,19.7294817 67.2174316,19.7294817 C65.3998088,19.7294817 64.0612123,19.1548338 63.200686,18.1970873 C62.3401596,17.2393408 61.8620895,15.8984958 61.7664754,14.4618761 L61.7664754,13.9830028 L73.1445456,13.9830028 L73.1445456,11.9717352 C73.1445456,10.9182141 73.0489316,9.96046761 72.7620895,9.00272113 C72.4762035,8.1407493 72.0927912,7.27877746 71.5200632,6.60835493 C70.9454228,5.93793239 70.1805105,5.36328451 69.2243702,4.88441127 C68.2682298,4.50131268 67.1208614,4.21398873 65.7832211,4.21398873 C64.7305105,4.21398873 63.6787561,4.40553803 62.7226158,4.69286197 C61.7664754,5.07596056 60.8103351,5.5548338 60.0463789,6.32103099 C59.2805105,7.08722817 58.6121684,7.9492 58.1331421,9.09849577 C57.6550719,10.2477915 57.4638439,11.5886366 57.4638439,13.121031 C57.4638439,15.0365239 57.750686,16.5689183 58.2287561,17.8139887 C58.8024404,19.0590592 59.4717386,20.0168056 60.3322649,20.7830028 C61.1927912,21.5492 62.1489316,22.0280732 63.2963,22.3153972 C64.4436684,22.6027211 65.5910368,22.7942704 66.7393614,22.7942704 C67.9813877,22.7942704 69.1297123,22.6984958 70.0858526,22.4111718 C71.041993,22.1238479 71.7103351,21.8365239 72.1884053,21.4534254 C72.7620895,20.8787775 73.0489316,20.4956789 73.0489316,20.1125803 Z M62.8182298,8.33229859 C63.5831421,7.56610141 64.5392825,7.27877746 65.6866509,7.27877746 C67.1208614,7.27877746 68.0770018,7.66187606 68.6516421,8.42807324 C69.2243702,9.19427042 69.5112123,10.1520169 69.5112123,11.3970873 L61.7664754,11.3970873 C61.7664754,10.0562423 62.1489316,9.09849577 62.8182298,8.33229859 Z M48.1892825,7.66187606 C48.8585807,7.66187606 49.4322649,7.7576507 49.8147211,7.9492 C50.2927912,8.1407493 50.5796333,8.52384789 50.7708614,8.90694648 C50.9620895,9.29004507 51.0577035,9.76891831 51.1533175,10.2477915 L51.1533175,21.9322986 L55.4559491,21.9322986 L55.4559491,11.5886366 C55.4559491,10.9182141 55.4559491,10.2477915 55.3603351,9.57736901 C55.3603351,8.90694648 55.2647211,8.23652394 55.169107,7.66187606 C55.073493,7.18300282 54.9778789,6.70412958 54.6910368,6.32103099 C54.4998088,5.93793239 54.2129667,5.5548338 53.7348965,5.26750986 C53.3524404,4.98018592 52.8743702,4.69286197 52.2050719,4.50131268 C51.6313877,4.30976338 50.8664754,4.21398873 50.0059491,4.21398873 C48.6673526,4.21398873 47.5199842,4.50131268 46.6594579,4.98018592 C45.7989316,5.45905915 45.0340193,6.03370704 44.5559491,6.60835493 L44.0778789,7.18300282 L43.8866509,6.51258028 C43.5998088,5.93793239 43.1217386,5.36328451 42.4524404,4.88441127 C41.7831421,4.40553803 40.8270018,4.21398873 39.4884053,4.21398873 C38.0541947,4.21398873 36.9068263,4.40553803 36.0463,4.88441127 C35.1857737,5.36328451 34.6120895,5.84215775 34.1340193,6.41680563 L33.5603351,7.27877746 L33.369107,6.22525634 C33.273493,5.65060845 32.9866509,5.26750986 32.5085807,4.98018592 C31.9348965,4.69286197 31.3612123,4.59708732 30.5963,4.59708732 L29.9270018,4.59708732 C29.7357737,4.59708732 29.5445456,4.59708732 29.4489316,4.69286197 L29.3533175,4.69286197 L29.3533175,22.0280732 L33.6559491,22.0280732 L33.6559491,10.0562423 C33.6559491,9.29004507 34.0384053,8.71539718 34.7077035,8.23652394 C35.3770018,7.7576507 36.2375281,7.56610141 37.1936684,7.56610141 C37.9585807,7.56610141 38.5322649,7.66187606 38.9147211,7.9492 C39.3927912,8.1407493 39.6796333,8.52384789 39.9664754,8.90694648 C40.1577035,9.29004507 40.2533175,9.76891831 40.3489316,10.3435662 L40.3489316,22.1238479 L44.6515632,22.1238479 L44.6515632,11.8759606 C44.6515632,11.1097634 44.6515632,10.3435662 44.5559491,9.67314366 L44.5559491,9.48159437 L44.6515632,9.38581972 C44.9384053,8.90694648 45.4164754,8.61962254 46.0857737,8.23652394 C46.7550719,7.7576507 47.4243702,7.66187606 48.1892825,7.66187606 Z" id="Fill-5" fill="#FFFFFF" mask="url(#mask-2)"></path>
                        </g>
                        <path d="M97.9087719,3.2560507 C98.1,4.40534648 98.195614,5.6504169 98.195614,6.89548732 C98.195614,11.4926704 96.9382895,15.8082761 94.7401228,19.5434873 C98.468114,23.4702479 100.872807,28.732107 100.872807,34.5743606 C100.872807,35.1490085 100.876632,35.691093 100.781018,36.2657408 C105.370491,32.6263042 108.235088,27.0081634 108.235088,20.6870366 C108.235088,13.2166141 104.02807,6.60816338 97.9087719,3.2560507" id="Fill-8" fill="#FFFFFF"></path>
                        <g id="Group-12" transform="translate(68.842105, 0.766197)">
                            <mask id="mask-4" fill="white">
                                <use xlink:href="#path-3"></use>
                            </mask>
                            <g id="Clip-11"></g>
                            <path d="M10.3266982,12.1631887 C14.7249439,12.1631887 18.8353912,13.5040338 22.2784526,15.8026254 C25.6249439,12.1631887 27.7274965,7.27868169 27.9187246,2.01107606 C25.3371456,0.861780282 22.5652947,0.191357746 19.5056456,0.191357746 C10.4223123,0.191357746 2.71677719,6.33625915 0.422996491,14.6686535 C3.38607544,13.0404845 6.78897895,12.1631887 10.3266982,12.1631887" id="Fill-10" fill="#FFFFFF" mask="url(#mask-4)"></path>
                        </g>
                    </g>
                </g>
            </g>
        </g>
    </g>
</svg>