<svg xmlns="http://www.w3.org/2000/svg" xmlns:xlink="http://www.w3.org/1999/xlink" width="120" height="24" viewBox="0 0 120 24">
    <defs>
        <path id="a" d="M.66.253h17.001v22.683H.66z"/>
        <path id="c" d="M.407.015h16.136v16.85H.407z"/>
        <path id="e" d="M.246.015H16.38v16.85H.246z"/>
        <path id="g" d="M.16.015h16.135v16.85H.16z"/>
        <path id="i" d="M.062.643h15.202V17.54H.062z"/>
    </defs>
    <g fill="none" fill-rule="evenodd">
        <g transform="translate(83.988 .422)">
            <mask id="b" fill="#fff">
                <use xlink:href="#a"/>
            </mask>
            <path fill="#20C3F3" d="M12.786 9.027c-2.402-1.49-4.137-2.193-5.117-2.114-2.105.17-3.363 1.606-3.363 3.84 0 2.236 1.256 3.671 3.36 3.84 1.329.11 3.768-1.266 5.164-2.137 1.066.877 2.23 2.318 2.04 4.331-.26 2.76-3.192 3.256-3.75 3.326H5.88c-1.353 0-2.452-1.122-2.452-2.501V5.578c0-1.379 1.1-2.5 2.451-2.5l4.209-.001.428.015a3.934 3.934 0 0 1 3.273 1.832c.428.672.768 2.383-1.003 4.103m-2.599 1.726c-1.428.801-2.136 1.023-2.299 1.025-.61-.05-.811-.205-.811-1.025 0-.81.2-.969.803-1.022.279.016 1.083.337 2.307 1.022m4.885-.057c2.288-2.55 2.155-5.56 1.04-7.312a6.74 6.74 0 0 0-5.53-3.115L5.879.253C3 .253.66 2.642.66 5.578v12.034c0 2.936 2.34 5.324 5.22 5.324h4.255l1.097-.004c2.037-.172 5.995-1.622 6.395-5.875.28-2.998-1.23-5.114-2.555-6.361" mask="url(#b)"/>
        </g>
        <path fill="#20C3F3" d="M10.84 3.808a7.67 7.67 0 0 1 4.144 1.199 8.132 8.132 0 0 1 2.938 3.307c.172.365.453.614.835.743.396.127.736.101 1.094-.081.356-.185.6-.47.72-.845.052-.15.077-.31.077-.472 0-.218-.05-.434-.156-.668-.924-1.87-2.265-3.378-3.984-4.477A10.398 10.398 0 0 0 10.839.861c-2.978 0-5.556 1.112-7.657 3.304C1.07 6.352 0 9.03 0 12.124c0 3.084 1.07 5.756 3.18 7.943 2.107 2.184 4.684 3.291 7.66 3.291 2.293 0 4.388-.506 6.23-1.508 2.375-1.288 3.578-3.062 3.578-5.276v-3.711c0-.402-.138-.756-.42-1.059a1.418 1.418 0 0 0-1.026-.418H11.36c-.402 0-.744.143-1.019.427-.274.29-.413.643-.413 1.05 0 .402.137.74.417 1.036a1.37 1.37 0 0 0 1.015.426h6.408v2.25c0 1.14-.793 2.098-2.357 2.848-1.384.66-2.921.996-4.572.996-2.19 0-4.08-.816-5.62-2.425-1.553-1.625-2.34-3.601-2.34-5.87 0-2.284.787-4.264 2.34-5.885 1.542-1.613 3.433-2.43 5.62-2.43M30.465 6.508c-1.763 0-3.349.616-4.713 1.831v-.357c0-.41-.14-.757-.416-1.036a1.42 1.42 0 0 0-2.046-.001 1.408 1.408 0 0 0-.417 1.037v13.917c0 .411.135.75.42 1.04a1.43 1.43 0 0 0 1.025.42 1.42 1.42 0 0 0 1.02-.426c.275-.282.414-.628.414-1.034v-6.952c0-1.508.466-2.817 1.384-3.891.916-1.059 2.036-1.596 3.33-1.596.397 0 .74-.148 1.008-.435.293-.285.437-.627.437-1.043 0-.413-.146-.761-.425-1.03a1.35 1.35 0 0 0-1.02-.444"/>
        <g transform="translate(31.743 6.493)">
            <mask id="d" fill="#fff">
                <use xlink:href="#c"/>
            </mask>
            <path fill="#20C3F3" d="M13.463 6.994h-9.98A5.477 5.477 0 0 1 5.356 4.13 5.3 5.3 0 0 1 8.72 2.95c1.315 0 1.948.448 2.87 1.176a5.48 5.48 0 0 1 1.872 2.867m.646-4.5C12.33.686 10.87.015 8.721.015a8.022 8.022 0 0 0-3.235.668 8.418 8.418 0 0 0-2.652 1.811C1.224 4.137.407 6.146.407 8.466A8.428 8.428 0 0 0 2.836 14.4c1.622 1.636 3.602 2.465 5.885 2.465 2.834 0 5.1-.954 6.732-2.837a1.43 1.43 0 0 0 .37-1.055 1.428 1.428 0 0 0-.482-1.024 1.421 1.421 0 0 0-.963-.361h-.08c-.4.023-.732.189-.986.488-1.068 1.228-2.613 1.85-4.59 1.85a5.27 5.27 0 0 1-3.355-1.164 5.376 5.376 0 0 1-1.883-2.82h11.612c.404 0 .751-.149 1.026-.436.283-.281.42-.621.42-1.04a8.41 8.41 0 0 0-.658-3.284 8.41 8.41 0 0 0-1.775-2.688" mask="url(#d)"/>
        </g>
        <g transform="translate(49.599 6.493)">
            <mask id="f" fill="#fff">
                <use xlink:href="#e"/>
            </mask>
            <path fill="#20C3F3" d="M13.302 6.994H3.323A5.479 5.479 0 0 1 5.191 4.13a5.31 5.31 0 0 1 3.37-1.18c1.313 0 1.947.448 2.868 1.176a5.483 5.483 0 0 1 1.873 2.867m.646-4.5C12.17.686 10.71.015 8.56.015a8.018 8.018 0 0 0-3.237.668 8.408 8.408 0 0 0-2.65 1.811C1.064 4.136.246 6.146.246 8.466A8.44 8.44 0 0 0 2.675 14.4c1.621 1.636 3.602 2.465 5.886 2.465 2.833 0 5.098-.954 6.733-2.838.265-.305.39-.66.367-1.054a1.432 1.432 0 0 0-1.446-1.385h-.08c-.4.023-.731.189-.985.488-1.067 1.228-2.611 1.85-4.59 1.85a5.27 5.27 0 0 1-3.355-1.164 5.38 5.38 0 0 1-1.883-2.82h11.612c.407 0 .752-.149 1.026-.436.283-.281.42-.621.42-1.04a8.437 8.437 0 0 0-.659-3.284 8.398 8.398 0 0 0-1.773-2.688" mask="url(#f)"/>
        </g>
        <g transform="translate(103.166 6.493)">
            <mask id="h" fill="#fff">
                <use xlink:href="#g"/>
            </mask>
            <path fill="#20C3F3" d="M13.217 6.994H3.238A5.473 5.473 0 0 1 5.107 4.13a5.306 5.306 0 0 1 3.369-1.18c1.314 0 1.947.448 2.87 1.176a5.475 5.475 0 0 1 1.87 2.867m2.66 2.512c.282-.28.42-.62.42-1.04 0-1.139-.222-2.244-.659-3.284a8.405 8.405 0 0 0-1.774-2.688C12.085.686 10.623.015 8.476.015A8.024 8.024 0 0 0 5.24.683a8.404 8.404 0 0 0-2.65 1.811C.976 4.136.16 6.146.16 8.466c0 1.135.222 2.237.66 3.277A8.384 8.384 0 0 0 2.59 14.4c1.621 1.636 3.6 2.465 5.885 2.465 2.833 0 5.097-.954 6.731-2.838.266-.303.391-.658.372-1.056a1.45 1.45 0 0 0-.484-1.022 1.424 1.424 0 0 0-.964-.361h-.08c-.4.023-.73.189-.985.488-1.068 1.228-2.612 1.85-4.59 1.85a5.27 5.27 0 0 1-3.354-1.164 5.364 5.364 0 0 1-1.884-2.82h11.613c.403 0 .75-.149 1.024-.436" mask="url(#h)"/>
        </g>
        <g transform="translate(67.455 5.819)">
            <mask id="j" fill="#fff">
                <use xlink:href="#i"/>
            </mask>
            <path fill="#20C3F3" d="M7.667.643c-1.77 0-3.358.616-4.723 1.83v-.354c0-.407-.136-.746-.416-1.04a1.42 1.42 0 0 0-2.047.002c-.279.285-.42.635-.42 1.038v13.914a1.446 1.446 0 0 0 2.47 1.034c.274-.285.413-.632.413-1.034V9.086c0-1.51.466-2.82 1.382-3.893.918-1.061 2.043-1.599 3.341-1.599 1.288 0 2.41.538 3.33 1.598.92 1.077 1.387 2.388 1.387 3.894v6.995c0 .395.14.743.42 1.04.274.274.624.419 1.013.419.394 0 .735-.143 1.015-.425.286-.288.432-.636.432-1.034V9.086c0-2.323-.75-4.327-2.225-5.96C11.562 1.48 9.755.644 7.667.644" mask="url(#j)"/>
        </g>
    </g>
</svg>
