<svg width="109" height="68" viewBox="0 0 109 68" xmlns="http://www.w3.org/2000/svg" xmlns:xlink="http://www.w3.org/1999/xlink">
    <title>
        Jemena white logo
    </title>
    <defs>
        <path id="a" d="M0 0h109v26.817H0z"/>
        <path id="c" d="M.423.192h27.496v15.61H.423z"/>
    </defs>
    <g fill="none" fill-rule="evenodd">
        <path d="M94.753 19.557v-.002c.005.004.005.002-.014-.011-4.319 7.325-12.265 12.272-21.404 12.272h-1.338c3.536 5.268 9.561 8.811 16.444 8.811 4.663 0 8.952-1.638 12.341-4.36.092-.567.09-1.104.09-1.673 0-5.843-2.391-11.11-6.12-15.037" fill="#FFF"/>
        <path d="M69.265 15.435a19.536 19.536 0 0 0-.71 5.252c0 .67 0 1.341.096 2.012 2.008.67 4.207.957 6.406.957 6.37 0 12.088-2.733 16.06-7.09a21.464 21.464 0 0 0-11.949-3.636c-3.527 0-6.945.886-9.903 2.505" fill="#FFF"/>
        <g transform="translate(0 40.992)">
            <mask id="b" fill="#fff">
                <use xlink:href="#a"/>
            </mask>
            <path d="M8.318 23.273c.478-1.053.765-2.203.956-3.352.096-1.245.192-2.394.192-3.352V2.586c0-.575-.096-.958-.287-1.341-.191-.287-.383-.575-.67-.766C8.223.287 7.84.19 7.553.096 7.171 0 6.788 0 6.502 0h-.479c-.382.096-.573.096-.764.096h-.287v18.58c0 .958-.096 1.82-.383 2.394-.287.67-.669 1.15-1.147 1.628-.478.384-1.052.67-1.721.862L0 23.848v.479c0 .287 0 .574.095.766.096.67.287 1.15.574 1.34.287.288.86.384 1.626.384 1.625 0 2.964-.383 3.824-1.054.956-.574 1.721-1.532 2.2-2.49zm99.821-5.267v-7.28c0-1.149-.095-2.106-.382-2.968-.191-.767-.67-1.437-1.148-2.012a4.13 4.13 0 0 0-2.102-1.149c-.956-.287-2.009-.383-3.347-.383-.956 0-1.912.096-2.773.287-.86.192-1.626.383-2.295.67-.668.288-1.146.48-1.53.863a.83.83 0 0 0-.382.67c0 .096 0 .383.287.958.19.383.382.67.573 1.053.67-.383 1.434-.766 2.2-1.053.955-.383 2.008-.575 3.155-.575 1.338 0 2.2.192 2.868.766.67.48.956 1.341.956 2.49v1.15h-2.102c-.862.096-1.913.191-2.965.383-1.052.192-2.008.479-2.964.958-.861.479-1.626 1.053-2.199 1.82-.574.766-.861 1.723-.861 2.873 0 .957.191 1.82.478 2.49a4.34 4.34 0 0 0 1.243 1.628c.478.383 1.053.67 1.721.862a7.13 7.13 0 0 0 1.912.287c1.244 0 2.295-.191 3.156-.574a6.817 6.817 0 0 0 2.103-1.437l.67-.67.19.862c.096.574.384.957.765 1.245.383.287.957.478 1.817.478.383 0 .765 0 1.148-.095.19 0 .479-.096.669-.192-.574-1.245-.86-2.586-.86-4.405zm-4.016-1.724a5.231 5.231 0 0 1-.956 1.34c-.19.192-.572.575-.86.767a3.52 3.52 0 0 1-1.052.479c-.382.095-.86.191-1.339.191-.86 0-1.434-.191-1.72-.575-.382-.383-.574-.957-.574-1.628 0-.574.095-.958.382-1.34.288-.384.67-.671 1.052-.863.478-.287.956-.383 1.626-.478.669-.096 1.242-.192 1.913-.192h.478l1.05-.096v2.395zM83.663 7.47c.765 0 1.338.096 1.816.383a2.78 2.78 0 0 1 1.052 1.054c.19.383.287.862.382 1.437 0 .478.096 1.053.096 1.628v10.152h4.302V11.589c0-.67 0-1.341-.095-2.012 0-.67-.095-1.34-.287-1.82-.191-1.053-.764-1.915-1.53-2.585-.765-.67-2.008-.958-3.729-.958-1.434 0-2.582.192-3.442.67-.86.48-1.434.958-1.912 1.533l-.574.862-.191-1.054c-.096-.574-.382-.957-.86-1.245-.575-.287-1.148-.383-1.912-.383h-.67c-.192 0-.383 0-.478.096h-.096v17.335h4.303V10.056c0-.766.382-1.436 1.243-1.915.573-.48 1.53-.67 2.581-.67zM27.058 20.113c0-.192-.096-.575-.478-1.245-.192-.384-.383-.767-.67-1.054-.095.096-.287.192-.382.383-.287.287-.67.479-1.052.766-.382.192-.86.383-1.434.575-.478.191-1.148.191-1.817.191-1.817 0-3.155-.574-4.016-1.532-.86-.958-1.338-2.299-1.434-3.735v-.479h11.378v-2.011c0-1.054-.095-2.012-.382-2.97-.287-.861-.67-1.723-1.243-2.394-.574-.67-1.339-1.245-2.295-1.724a9.173 9.173 0 0 0-3.442-.67c-1.052 0-2.104.192-3.06.479-.956.383-1.912.862-2.677 1.628-.765.766-1.434 1.628-1.912 2.777-.478 1.15-.67 2.49-.67 4.023 0 1.916.287 3.448.765 4.693.574 1.245 1.243 2.203 2.104 2.969.86.766 1.817 1.245 2.964 1.532 1.147.288 2.295.48 3.442.48 1.243 0 2.39-.097 3.347-.384.956-.287 1.625-.574 2.103-.958.574-.574.86-.957.86-1.34zM16.828 8.333c.765-.767 1.72-1.054 2.868-1.054 1.435 0 2.39.383 2.964 1.15.574.765.86 1.723.86 2.968h-7.744c0-1.34.287-2.299 1.052-3.065zm56.22 11.78c0-.192-.094-.575-.477-1.245-.191-.384-.383-.767-.67-1.054-.095.096-.286.192-.38.383-.289.287-.671.479-1.054.766-.381.192-.86.383-1.434.575-.478.191-1.147.191-1.816.191-1.817 0-3.156-.574-4.016-1.532-.86-.958-1.339-2.299-1.435-3.735v-.479h11.379v-2.011c0-1.054-.096-2.012-.383-2.97-.286-.861-.67-1.723-1.242-2.394-.575-.67-1.34-1.245-2.296-1.724a9.172 9.172 0 0 0-3.44-.67c-1.053 0-2.105.192-3.061.479-.957.383-1.913.862-2.677 1.628-.765.766-1.434 1.628-1.913 2.777-.478 1.15-.67 2.49-.67 4.023 0 1.916.288 3.448.766 4.693.573 1.245 1.243 2.203 2.103 2.969.86.766 1.817 1.245 2.964 1.532 1.148.288 2.295.48 3.443.48 1.242 0 2.39-.097 3.347-.384.956-.287 1.624-.574 2.102-.958.574-.574.86-.957.86-1.34zm-10.23-11.78c.765-.767 1.721-1.054 2.869-1.054 1.434 0 2.39.383 2.965 1.15.572.765.86 1.723.86 2.968h-7.746c0-1.34.383-2.299 1.052-3.065zM48.19 7.661c.67 0 1.243.096 1.626.287.478.192.765.575.956.958.191.383.287.862.382 1.34v11.685h4.303V11.59c0-.67 0-1.341-.096-2.012 0-.67-.095-1.34-.19-1.915-.097-.479-.192-.958-.479-1.341a2.48 2.48 0 0 0-.956-1.053 4.559 4.559 0 0 0-1.53-.767c-.574-.191-1.339-.287-2.2-.287-1.338 0-2.485.287-3.346.766-.86.48-1.625 1.054-2.103 1.628l-.478.575-.191-.67c-.287-.575-.765-1.15-1.435-1.629-.669-.478-1.625-.67-2.964-.67-1.434 0-2.581.192-3.442.67-.86.48-1.434.958-1.912 1.533l-.574.862-.19-1.054c-.097-.574-.383-.957-.861-1.245-.574-.287-1.148-.383-1.913-.383h-.669c-.191 0-.382 0-.478.096h-.096v17.335h4.303V10.056c0-.766.382-1.34 1.052-1.82.669-.478 1.53-.67 2.486-.67.765 0 1.338.096 1.72.383.479.192.766.575 1.052.958.192.383.287.862.383 1.437v11.78h4.303V11.876c0-.766 0-1.532-.096-2.203v-.191l.096-.096c.286-.48.764-.766 1.434-1.15.67-.478 1.338-.574 2.103-.574z" fill="#FFF" mask="url(#b)"/>
        </g>
        <path d="M97.909 3.256a22.45 22.45 0 0 1 .287 3.64c0 4.597-1.258 8.912-3.456 12.647 3.728 3.927 6.133 9.19 6.133 15.031 0 .575.004 1.117-.092 1.692 4.59-3.64 7.454-9.258 7.454-15.579 0-7.47-4.207-14.079-10.326-17.43" fill="#FFF"/>
        <g transform="translate(68.842 .766)">
            <mask id="d" fill="#fff">
                <use xlink:href="#c"/>
            </mask>
            <path d="M10.327 12.163c4.398 0 8.508 1.341 11.951 3.64 3.347-3.64 5.45-8.524 5.64-13.792-2.58-1.15-5.353-1.82-8.412-1.82C10.422.191 2.716 6.336.423 14.67c2.963-1.629 6.366-2.506 9.904-2.506" fill="#FFF" mask="url(#d)"/>
        </g>
    </g>
</svg>
