<svg xmlns="http://www.w3.org/2000/svg" xmlns:xlink="http://www.w3.org/1999/xlink" width="98" height="34" viewBox="0 0 98 34">
    <defs>
        <path id="a" d="M0 .381h24.77v33.096H0z"/>
    </defs>
    <g fill="none" fill-rule="evenodd">
        <g transform="translate(0 .142)">
            <mask id="b" fill="#fff">
                <use xlink:href="#a"/>
            </mask>
            <path fill="#20C3F3" d="M15.913 15.63c-2.11 1.26-4.594 2.53-5.564 2.53h-.036c-1.526-.12-2.148-.853-2.148-2.53 0-1.677.622-2.41 2.184-2.533.97 0 3.452 1.272 5.564 2.533m6.377 9.406c-.511 5.364-6.676 5.973-6.834 5.992H7.239c-2.646 0-4.799-2.16-4.799-4.813V7.645c0-2.655 2.153-4.815 4.8-4.815h6.63l.669.022c3.488.092 5.293 2.31 5.909 3.263.827 1.276 1.526 4.503-1.756 7.58-.166.156-.345.302-.524.45-1.844-1.155-6.081-3.638-8.046-3.49-2.794.223-4.397 2.034-4.397 4.975 0 2.94 1.603 4.753 4.395 4.974.073.005.15.008.23.008 2.058 0 6.09-2.401 7.849-3.516 1.593 1.155 4.483 3.837 4.092 7.94m-1.921-9.358l-.112-.113c.018-.017.083-.062.1-.08 3.88-3.637 3.826-8.098 2.137-10.707-1.72-2.655-4.67-4.291-7.882-4.374L7.239.381C3.248.381 0 3.638 0 7.644v18.57c0 4.005 3.248 7.263 7.239 7.263h6.672l1.647-.003c2.922-.245 8.596-2.272 9.164-8.206.45-4.73-2.312-7.912-4.353-9.59" mask="url(#b)"/>
        </g>
        <path fill="#BABABA" d="M96.743 22.227h-.23v-1.283h.384l.217.886.219-.886h.38v1.283h-.23v-1.023l-.26 1.023h-.22l-.26-1.023v1.023zm-.755 0h-.243v-1.059h-.372v-.224h.979v.224h-.364v1.06zm-13.323-7.249c-1.293-.789-2.223-1.164-2.755-1.12-1.133.09-1.81.85-1.81 2.034 0 1.185.676 1.944 1.808 2.033.715.055 2.029-.67 2.78-1.132.574.464 1.201 1.227 1.098 2.294-.14 1.46-1.718 1.724-2.019 1.76h-2.82a1.323 1.323 0 0 1-1.32-1.324v-6.37c0-.731.592-1.325 1.32-1.325h2.265l.23.008a2.124 2.124 0 0 1 1.762.97c.231.355.413 1.262-.54 2.172m-1.4.914c-.767.425-1.148.54-1.237.542-.326-.026-.436-.108-.436-.542 0-.429.109-.513.433-.541.15.008.582.178 1.24.541m2.63-.031c1.232-1.35 1.161-2.943.56-3.871a3.641 3.641 0 0 0-2.976-1.65l-2.532-.008a2.817 2.817 0 0 0-2.808 2.82v6.37a2.818 2.818 0 0 0 2.808 2.821h2.292l.59-.003c1.097-.091 3.226-.858 3.442-3.111.15-1.587-.662-2.707-1.376-3.368m-47.484-3.87c.799 0 1.551.214 2.23.635a4.337 4.337 0 0 1 1.582 1.75.735.735 0 0 0 .45.394.729.729 0 0 0 .588-.043.75.75 0 0 0 .388-.447.76.76 0 0 0 .043-.25.828.828 0 0 0-.086-.353 5.858 5.858 0 0 0-2.144-2.37 5.664 5.664 0 0 0-3.05-.876c-1.605 0-2.992.59-4.122 1.749-1.137 1.158-1.713 2.576-1.713 4.214 0 1.633.576 3.048 1.712 4.205 1.133 1.157 2.521 1.744 4.122 1.744 1.234 0 2.363-.268 3.353-.798 1.279-.683 1.928-1.623 1.928-2.795v-1.964c0-.213-.076-.4-.227-.56a.77.77 0 0 0-.553-.222H36.69c-.216 0-.4.076-.548.225a.78.78 0 0 0-.222.557.75.75 0 0 0 .224.548c.148.15.333.226.546.226h3.45v1.19c0 .605-.428 1.111-1.268 1.509a5.748 5.748 0 0 1-2.462.527c-1.178 0-2.196-.431-3.026-1.284a4.32 4.32 0 0 1-1.259-3.108c0-1.21.423-2.258 1.26-3.116.83-.853 1.848-1.287 3.025-1.287m10.564 1.429c-.95 0-1.803.327-2.538.97v-.19a.743.743 0 0 0-.223-.547.773.773 0 0 0-1.102 0 .74.74 0 0 0-.224.548v7.369c0 .218.073.396.226.55.156.148.34.223.552.223a.772.772 0 0 0 .549-.226.75.75 0 0 0 .222-.547v-3.681c0-.798.251-1.492.746-2.06.492-.561 1.096-.845 1.792-.845.214 0 .399-.08.543-.23a.728.728 0 0 0 .235-.553.722.722 0 0 0-.229-.544.73.73 0 0 0-.549-.237m7.933 3.696h-5.37a2.89 2.89 0 0 1 1.007-1.516 2.883 2.883 0 0 1 1.812-.625c.706 0 1.048.238 1.543.624.502.4.84.91 1.008 1.517m.349-2.382c-.957-.958-1.744-1.313-2.9-1.313a4.512 4.512 0 0 0-3.168 1.313 4.336 4.336 0 0 0-1.307 3.162 4.45 4.45 0 0 0 1.307 3.142 4.357 4.357 0 0 0 3.168 1.305c1.525 0 2.743-.506 3.624-1.502a.747.747 0 0 0 .197-.559.75.75 0 0 0-.258-.543.772.772 0 0 0-.519-.191h-.044a.732.732 0 0 0-.529.26c-.575.65-1.407.979-2.471.979a2.867 2.867 0 0 1-1.806-.617 2.84 2.84 0 0 1-1.013-1.494h6.25a.749.749 0 0 0 .553-.23.735.735 0 0 0 .225-.55c0-.605-.119-1.19-.355-1.74a4.445 4.445 0 0 0-.954-1.422m9.175 2.382h-5.37a2.89 2.89 0 0 1 1.006-1.516 2.883 2.883 0 0 1 1.812-.625c.709 0 1.05.237 1.546.624.5.4.839.91 1.006 1.517m.349-2.382c-.957-.958-1.743-1.313-2.901-1.313-.61 0-1.197.119-1.74.354-.53.224-1.01.546-1.428.959a4.335 4.335 0 0 0-1.306 3.162c0 .6.118 1.184.354 1.734.224.526.546 1 .952 1.408.874.865 1.94 1.305 3.168 1.305 1.526 0 2.745-.506 3.626-1.504a.754.754 0 0 0 .197-.557.756.756 0 0 0-.26-.543.776.776 0 0 0-.518-.191h-.044a.73.73 0 0 0-.529.26c-.575.65-1.407.979-2.472.979-.674 0-1.28-.208-1.805-.617a2.842 2.842 0 0 1-1.013-1.494h6.25a.743.743 0 0 0 .551-.23.731.731 0 0 0 .227-.55 4.44 4.44 0 0 0-.353-1.738 4.468 4.468 0 0 0-.956-1.424m28.438 2.382h-5.37a2.883 2.883 0 0 1 1.006-1.516 2.88 2.88 0 0 1 1.813-.625c.707 0 1.048.238 1.544.624a2.9 2.9 0 0 1 1.007 1.517m1.433 1.33a.733.733 0 0 0 .226-.55 4.43 4.43 0 0 0-.354-1.74 4.462 4.462 0 0 0-.956-1.422c-.957-.958-1.743-1.313-2.9-1.313-.61 0-1.197.119-1.742.354a4.529 4.529 0 0 0-1.426.959 4.333 4.333 0 0 0-1.307 3.162c0 .6.118 1.184.353 1.734.222.523.543.996.954 1.408a4.354 4.354 0 0 0 3.168 1.305c1.524 0 2.743-.506 3.623-1.502a.76.76 0 0 0 .2-.56.77.77 0 0 0-.78-.733h-.043a.735.735 0 0 0-.53.26c-.575.65-1.405.979-2.47.979a2.862 2.862 0 0 1-1.804-.617 2.833 2.833 0 0 1-1.015-1.494h6.25a.75.75 0 0 0 .553-.23m-23.641-5.05c-.952 0-1.808.326-2.542.97v-.188a.752.752 0 0 0-.225-.55.773.773 0 0 0-1.101 0 .754.754 0 0 0-.226.55v7.367c0 .216.074.395.227.55a.79.79 0 0 0 1.104-.003.76.76 0 0 0 .22-.547v-3.68c0-.797.252-1.491.745-2.06.494-.56 1.1-.846 1.798-.846.693 0 1.297.285 1.792.846.496.57.747 1.264.747 2.06v3.705a.77.77 0 0 0 1.318.548.755.755 0 0 0 .233-.548v-3.704c0-1.23-.404-2.29-1.197-3.154-.796-.873-1.769-1.316-2.893-1.316"/>
    </g>
</svg>
