<svg xmlns="http://www.w3.org/2000/svg" xmlns:xlink="http://www.w3.org/1999/xlink" width="120" height="24" viewBox="0 0 120 24">
    <defs>
        <path id="a" d="M.66.25h17.001v22.43H.66z"/>
        <path id="c" d="M.407.015h16.136v16.661H.407z"/>
        <path id="e" d="M.246.015H16.38v16.661H.246z"/>
        <path id="g" d="M.16.015h16.135v16.661H.16z"/>
        <path id="i" d="M.062.636h15.202v16.708H.062z"/>
    </defs>
    <g fill="none" fill-rule="evenodd">
        <g transform="translate(83.988 .417)">
            <mask id="b" fill="#fff">
                <use xlink:href="#a"/>
            </mask>
            <path fill="#FFF" d="M12.786 8.926c-2.402-1.474-4.137-2.169-5.117-2.09-2.105.168-3.363 1.587-3.363 3.797 0 2.211 1.256 3.63 3.36 3.796 1.329.11 3.768-1.251 5.164-2.113 1.066.868 2.23 2.292 2.04 4.284-.26 2.729-3.192 3.219-3.75 3.288H5.88c-1.353 0-2.452-1.11-2.452-2.473v-11.9c0-1.363 1.1-2.471 2.451-2.471l4.209-.002.428.016a3.94 3.94 0 0 1 3.273 1.81c.428.665.768 2.357-1.003 4.058m-2.599 1.707c-1.428.792-2.136 1.011-2.299 1.013-.61-.049-.811-.203-.811-1.013 0-.801.2-.958.803-1.01.279.015 1.083.332 2.307 1.01m4.885-.057c2.288-2.521 2.155-5.498 1.04-7.23a6.76 6.76 0 0 0-5.53-3.08L5.879.25C3 .25.66 2.612.66 5.516v11.899c0 2.903 2.34 5.265 5.22 5.265h4.255l1.097-.005c2.037-.17 5.995-1.603 6.395-5.81.28-2.964-1.23-5.056-2.555-6.289" mask="url(#b)"/>
        </g>
        <path fill="#FFF" d="M10.84 3.766c1.486 0 2.88.398 4.144 1.185a8.072 8.072 0 0 1 2.938 3.27c.172.361.453.608.835.734.396.126.736.101 1.094-.08a1.4 1.4 0 0 0 .72-.835c.052-.149.077-.306.077-.467 0-.215-.05-.429-.156-.66a10.947 10.947 0 0 0-3.984-4.427A10.484 10.484 0 0 0 10.839.851c-2.978 0-5.556 1.1-7.657 3.267C1.07 6.281 0 8.928 0 11.988c0 3.05 1.07 5.692 3.18 7.854 2.107 2.16 4.684 3.255 7.66 3.255 2.293 0 4.388-.501 6.23-1.491 2.375-1.274 3.578-3.028 3.578-5.217v-3.67c0-.398-.138-.747-.42-1.047a1.426 1.426 0 0 0-1.026-.413H11.36c-.402 0-.744.141-1.019.422a1.456 1.456 0 0 0-.413 1.038c0 .398.137.732.417 1.024.275.28.617.421 1.015.421h6.408v2.225c0 1.127-.793 2.075-2.357 2.817-1.384.653-2.921.985-4.572.985-2.19 0-4.08-.807-5.62-2.398-1.553-1.607-2.34-3.561-2.34-5.805 0-2.258.787-4.216 2.34-5.818 1.542-1.596 3.433-2.404 5.62-2.404m19.626 2.669c-1.763 0-3.349.61-4.713 1.81v-.353c0-.404-.14-.748-.416-1.024a1.43 1.43 0 0 0-2.046-.001 1.384 1.384 0 0 0-.417 1.025v13.762c0 .407.135.74.42 1.029.287.276.632.414 1.025.414a1.427 1.427 0 0 0 1.434-1.443V14.78c0-1.491.466-2.786 1.384-3.848.916-1.047 2.036-1.577 3.33-1.577.397 0 .74-.147 1.008-.431.293-.282.437-.62.437-1.032 0-.407-.146-.752-.425-1.017a1.358 1.358 0 0 0-1.02-.44"/>
        <g transform="translate(31.743 6.42)">
            <mask id="d" fill="#fff">
                <use xlink:href="#c"/>
            </mask>
            <path fill="#FFF" d="M13.463 6.916h-9.98a5.41 5.41 0 0 1 1.872-2.831A5.338 5.338 0 0 1 8.72 2.918c1.315 0 1.948.443 2.87 1.163a5.41 5.41 0 0 1 1.872 2.835m.646-4.45C12.33.68 10.87.015 8.721.015a8.1 8.1 0 0 0-3.235.66 8.423 8.423 0 0 0-2.652 1.791C1.224 4.091.407 6.077.407 8.372c0 1.122.222 2.212.658 3.24a8.32 8.32 0 0 0 1.77 2.627c1.623 1.618 3.603 2.438 5.886 2.438 2.834 0 5.1-.944 6.732-2.806.267-.3.392-.652.37-1.043a1.43 1.43 0 0 0-1.445-1.37h-.08a1.36 1.36 0 0 0-.986.483c-1.068 1.214-2.613 1.829-4.59 1.829a5.307 5.307 0 0 1-3.355-1.15 5.312 5.312 0 0 1-1.883-2.79h11.612c.404 0 .751-.146 1.026-.43.283-.278.42-.615.42-1.028 0-1.13-.221-2.222-.658-3.248a8.31 8.31 0 0 0-1.775-2.658" mask="url(#d)"/>
        </g>
        <g transform="translate(49.599 6.42)">
            <mask id="f" fill="#fff">
                <use xlink:href="#e"/>
            </mask>
            <path fill="#FFF" d="M13.302 6.916H3.323a5.413 5.413 0 0 1 1.868-2.831 5.348 5.348 0 0 1 3.37-1.167c1.313 0 1.947.443 2.868 1.163.93.747 1.56 1.7 1.873 2.835m.646-4.45C12.17.68 10.71.015 8.56.015a8.096 8.096 0 0 0-3.237.66 8.413 8.413 0 0 0-2.65 1.791C1.064 4.09.246 6.077.246 8.372a8.27 8.27 0 0 0 .657 3.24 8.336 8.336 0 0 0 1.772 2.627c1.621 1.618 3.602 2.438 5.886 2.438 2.833 0 5.098-.944 6.733-2.807.265-.301.39-.653.367-1.042a1.41 1.41 0 0 0-.482-1.014 1.443 1.443 0 0 0-.964-.356h-.08c-.4.024-.731.187-.985.483-1.067 1.214-2.611 1.829-4.59 1.829a5.308 5.308 0 0 1-3.355-1.15c-.936-.736-1.57-1.675-1.883-2.79h11.612c.407 0 .752-.146 1.026-.43a1.37 1.37 0 0 0 .42-1.028 8.262 8.262 0 0 0-.659-3.248 8.297 8.297 0 0 0-1.773-2.658" mask="url(#f)"/>
        </g>
        <g transform="translate(103.166 6.42)">
            <mask id="h" fill="#fff">
                <use xlink:href="#g"/>
            </mask>
            <path fill="#FFF" d="M13.217 6.916H3.238a5.407 5.407 0 0 1 1.869-2.831 5.344 5.344 0 0 1 3.369-1.167c1.314 0 1.947.443 2.87 1.163a5.409 5.409 0 0 1 1.87 2.835m2.66 2.484c.282-.278.42-.614.42-1.028 0-1.127-.222-2.22-.659-3.248a8.304 8.304 0 0 0-1.774-2.658C12.085.68 10.623.015 8.476.015a8.102 8.102 0 0 0-3.236.66 8.409 8.409 0 0 0-2.65 1.791C.976 4.09.16 6.077.16 8.372a8.22 8.22 0 0 0 .66 3.24 8.284 8.284 0 0 0 1.771 2.627c1.621 1.618 3.6 2.438 5.885 2.438 2.833 0 5.097-.944 6.731-2.807.266-.3.391-.65.372-1.044a1.427 1.427 0 0 0-1.448-1.368h-.08c-.4.024-.73.187-.985.483-1.068 1.214-2.612 1.829-4.59 1.829a5.307 5.307 0 0 1-3.354-1.15c-.938-.735-1.571-1.674-1.884-2.79h11.613c.403 0 .75-.146 1.024-.43" mask="url(#h)"/>
        </g>
        <g transform="translate(67.455 5.754)">
            <mask id="j" fill="#fff">
                <use xlink:href="#i"/>
            </mask>
            <path fill="#FFF" d="M7.667.636c-1.77 0-3.358.609-4.723 1.809v-.35c0-.403-.136-.737-.416-1.028A1.432 1.432 0 0 0 .48 1.07a1.41 1.41 0 0 0-.42 1.026v13.758c0 .404.138.74.423 1.028a1.458 1.458 0 0 0 2.048-.005 1.42 1.42 0 0 0 .412-1.023v-6.87c0-1.492.466-2.788 1.382-3.849.918-1.05 2.043-1.58 3.341-1.58 1.288 0 2.41.53 3.33 1.579.92 1.065 1.387 2.361 1.387 3.85v6.917c0 .39.14.735.42 1.028.274.272.624.415 1.013.415.394 0 .735-.141 1.015-.42.286-.285.432-.63.432-1.023V8.984c0-2.297-.75-4.278-2.225-5.892C11.562 1.462 9.755.636 7.667.636" mask="url(#j)"/>
        </g>
    </g>
</svg>
